<svg xmlns="http://www.w3.org/2000/svg" width="1200" height="675" viewBox="0 0 1200 675" role="img" aria-labelledby="title desc">
  <title id="title">HEIMAN smart home safety social card</title>
  <desc id="desc">A cheerful pajama party style illustration with diverse people, soft pillows, and HEIMAN smart safety devices.</desc>
  <defs>
    <filter id="softShadow" x="-30%" y="-30%" width="160%" height="160%">
      <feDropShadow dx="0" dy="12" stdDeviation="10" flood-color="#546076" flood-opacity="0.16"/>
    </filter>
    <filter id="tinyShadow" x="-25%" y="-25%" width="150%" height="150%">
      <feDropShadow dx="0" dy="6" stdDeviation="5" flood-color="#546076" flood-opacity="0.14"/>
    </filter>
    <style>
      .ink { fill: #565b78; }
      .soft-ink { stroke: #565b78; }
      .limb { fill: none; stroke-linecap: round; stroke-linejoin: round; }
      .smile { fill: none; stroke: #565b78; stroke-width: 5; stroke-linecap: round; }
      .dot { fill: #f3d9bf; opacity: 0.95; }
    </style>
  </defs>

  <rect width="1200" height="675" fill="#fffdf9"/>
  <path d="M0 545 C177 507 283 560 443 529 C626 494 771 538 944 506 C1050 486 1131 501 1200 524 L1200 675 L0 675 Z" fill="#f3f7f5"/>
  <path d="M45 544 C185 501 314 559 458 523 C612 486 769 532 936 502 C1031 486 1113 496 1160 516" fill="none" stroke="#e7f0ed" stroke-width="6" stroke-linecap="round"/>

  <text x="600" y="99" text-anchor="middle" font-family="'Noto Serif Display', 'URW Bookman', Georgia, serif" font-size="102" font-weight="500" font-style="italic" fill="#565b78">Heiman Safety</text>
  <path d="M333 112 C429 133 522 126 591 105" fill="none" stroke="#cfd4e4" stroke-width="5" stroke-linecap="round" opacity="0.78"/>
  <path d="M637 108 C720 128 815 126 890 102" fill="none" stroke="#cfd4e4" stroke-width="5" stroke-linecap="round" opacity="0.78"/>
  <text x="600" y="151" text-anchor="middle" font-family="Arial, sans-serif" font-size="22" font-weight="700" letter-spacing="3" fill="#8a90a7">SMART HOME PROTECTION FOR EVERY ROOM</text>

  <g transform="translate(192 170) rotate(-10)" filter="url(#tinyShadow)">
    <path d="M9 23 C18 5 59 -2 86 14 C105 27 105 60 86 75 C62 93 17 84 7 61 C2 48 2 36 9 23 Z" fill="#c8d8ec"/>
    <path d="M24 22 C33 35 46 46 63 54" fill="none" stroke="#9fb2ca" stroke-width="5" stroke-linecap="round"/>
    <path d="M30 59 C46 51 58 38 66 22" fill="none" stroke="#9fb2ca" stroke-width="5" stroke-linecap="round"/>
    <circle cx="24" cy="48" r="3.5" fill="#9fb2ca"/>
    <circle cx="74" cy="35" r="3.5" fill="#9fb2ca"/>
  </g>

  <g transform="translate(546 166)" filter="url(#tinyShadow)">
    <ellipse cx="64" cy="18" rx="74" ry="18" fill="#eaf2ff"/>
    <rect x="8" y="2" width="112" height="52" rx="26" fill="#fff" stroke="#565b78" stroke-width="6"/>
    <ellipse cx="64" cy="53" rx="49" ry="17" fill="#fbfdff" stroke="#565b78" stroke-width="6"/>
    <path d="M30 44 C46 55 83 55 98 44" fill="none" stroke="#565b78" stroke-width="6" stroke-linecap="round"/>
    <path d="M35 20 H93" stroke="#b9c4d7" stroke-width="5" stroke-linecap="round" stroke-dasharray="3 10"/>
    <circle cx="64" cy="53" r="13" fill="#ff756c"/>
    <circle cx="64" cy="53" r="5" fill="#fff"/>
  </g>

  <g transform="translate(926 174) rotate(13)" filter="url(#tinyShadow)">
    <path d="M11 20 C25 3 67 2 91 20 C108 34 101 67 78 78 C51 91 11 80 5 55 C2 41 3 29 11 20 Z" fill="#e7a2ab"/>
    <g fill="#f4c7cf">
      <circle cx="24" cy="28" r="3"/>
      <circle cx="44" cy="20" r="3"/>
      <circle cx="72" cy="31" r="3"/>
      <circle cx="35" cy="55" r="3"/>
      <circle cx="65" cy="62" r="3"/>
    </g>
    <path d="M88 17 l10 -8 M79 79 l6 10" stroke="#d58591" stroke-width="6" stroke-linecap="round"/>
  </g>

  <g transform="translate(74 257)">
    <ellipse cx="57" cy="354" rx="51" ry="11" fill="#ead8d2"/>
    <path class="limb" d="M49 184 C28 226 23 269 21 319" stroke="#7f5d4b" stroke-width="12"/>
    <path class="limb" d="M83 184 C102 228 106 270 115 319" stroke="#7f5d4b" stroke-width="12"/>
    <path d="M37 178 H92 L105 313 H78 L64 223 L48 313 H21 Z" fill="#9bb8cd"/>
    <path d="M36 61 C28 75 26 91 29 110 C33 134 47 151 66 151 C87 151 101 132 100 106 C99 78 84 59 62 56 C51 55 43 57 36 61 Z" fill="#8a5d47"/>
    <circle cx="66" cy="104" r="42" fill="#b8735e"/>
    <path d="M26 92 C37 53 77 44 100 77 C79 72 54 73 32 88 Z" fill="#3d2f32"/>
    <circle cx="35" cy="76" r="11" fill="#3d2f32"/>
    <circle cx="51" cy="60" r="10" fill="#3d2f32"/>
    <circle cx="68" cy="58" r="9" fill="#3d2f32"/>
    <path class="smile" d="M54 112 Q66 124 79 112"/>
    <path d="M30 145 C46 164 81 164 99 145 L103 204 C84 216 47 216 27 202 Z" fill="#d9edf6"/>
    <path class="limb" d="M33 154 C6 144 -3 120 5 97" stroke="#b8735e" stroke-width="12"/>
    <path class="limb" d="M95 153 C123 132 139 100 150 73" stroke="#b8735e" stroke-width="12"/>
    <path class="limb" d="M145 75 l10 -18 M150 73 l18 -11" stroke="#b8735e" stroke-width="5"/>
    <circle cx="47" cy="95" r="3" fill="#565b78"/>
    <circle cx="82" cy="95" r="3" fill="#565b78"/>
  </g>

  <g transform="translate(210 335)">
    <ellipse cx="74" cy="271" rx="67" ry="12" fill="#e8d8d5"/>
    <path d="M28 148 C3 174 -1 205 23 224 C48 246 91 231 109 202 C118 187 113 171 99 162 C75 145 48 139 28 148 Z" fill="#6d7f99"/>
    <path d="M49 156 C35 191 41 215 72 227" fill="none" stroke="#53617a" stroke-width="8" stroke-linecap="round"/>
    <circle cx="70" cy="53" r="36" fill="#c47e62"/>
    <path d="M35 45 C44 19 71 8 96 23 C85 32 62 35 39 31 Z" fill="#33292e"/>
    <path class="smile" d="M57 60 Q68 70 80 60"/>
    <path d="M29 88 C47 105 87 105 108 88 L118 143 C92 160 49 160 20 142 Z" fill="#eef2f5"/>
    <path d="M27 100 H112 M26 119 H116" stroke="#9db1c5" stroke-width="5" stroke-linecap="round"/>
    <path class="limb" d="M31 111 C16 133 1 145 -15 154" stroke="#c47e62" stroke-width="10"/>
    <path class="limb" d="M105 111 C124 125 142 131 163 128" stroke="#c47e62" stroke-width="10"/>
    <g transform="translate(117 61) rotate(-11)" filter="url(#tinyShadow)">
      <path d="M11 42 C21 12 92 0 132 22 C158 38 151 83 116 96 C77 111 19 93 6 68 C1 58 3 49 11 42 Z" fill="#efc76b"/>
      <path d="M15 64 C54 83 93 80 128 52" fill="none" stroke="#dcae55" stroke-width="6" stroke-linecap="round"/>
      <path d="M47 30 C67 41 91 42 113 31" fill="none" stroke="#f8df94" stroke-width="5" stroke-linecap="round"/>
      <g fill="#f8df94">
        <circle cx="37" cy="44" r="3"/>
        <circle cx="61" cy="29" r="3"/>
        <circle cx="91" cy="57" r="3"/>
        <circle cx="117" cy="42" r="3"/>
      </g>
    </g>
  </g>

  <g transform="translate(420 267)">
    <ellipse cx="68" cy="341" rx="52" ry="11" fill="#ead8d2"/>
    <path class="limb" d="M49 187 C37 231 29 268 30 324" stroke="#b97a67" stroke-width="11"/>
    <path class="limb" d="M91 186 C107 231 107 272 102 324" stroke="#b97a67" stroke-width="11"/>
    <path d="M35 178 H99 L91 254 H44 Z" fill="#e3a0a1"/>
    <g fill="#f3d9bf">
      <circle cx="52" cy="199" r="3"/>
      <circle cx="76" cy="190" r="3"/>
      <circle cx="87" cy="221" r="3"/>
      <circle cx="55" cy="239" r="3"/>
    </g>
    <circle cx="67" cy="76" r="40" fill="#b97a67"/>
    <path d="M28 73 C32 35 58 17 88 25 C113 31 124 55 121 89 C101 74 75 70 28 73 Z" fill="#4b3132"/>
    <path d="M102 55 C127 81 130 119 113 147" fill="none" stroke="#4b3132" stroke-width="18" stroke-linecap="round"/>
    <path class="smile" d="M55 82 Q67 93 80 82"/>
    <path d="M30 118 C49 137 86 137 106 118 L113 181 C90 195 46 195 23 180 Z" fill="#f2c85d"/>
    <g fill="#fff0ad">
      <circle cx="44" cy="133" r="3"/>
      <circle cx="75" cy="127" r="3"/>
      <circle cx="97" cy="151" r="3"/>
      <circle cx="57" cy="165" r="3"/>
    </g>
    <path class="limb" d="M32 130 C7 143 0 168 3 193" stroke="#b97a67" stroke-width="11"/>
    <path class="limb" d="M102 130 C132 110 147 80 155 46" stroke="#b97a67" stroke-width="11"/>
    <path class="limb" d="M152 47 l12 -17 M155 46 l17 -8" stroke="#b97a67" stroke-width="5"/>
    <g transform="translate(132 28) rotate(-18)" filter="url(#tinyShadow)">
      <path d="M8 22 C20 4 68 -2 92 14 C112 27 108 61 84 73 C57 87 14 77 5 54 C1 42 2 31 8 22 Z" fill="#f3ca6e"/>
      <g fill="#ffeaa5">
        <circle cx="25" cy="29" r="3"/>
        <circle cx="50" cy="20" r="3"/>
        <circle cx="73" cy="35" r="3"/>
        <circle cx="39" cy="57" r="3"/>
      </g>
    </g>
  </g>

  <g transform="translate(610 288)">
    <ellipse cx="80" cy="320" rx="58" ry="12" fill="#dde1e7"/>
    <path class="limb" d="M56 178 C32 230 29 273 22 302" stroke="#8a5b45" stroke-width="12"/>
    <path class="limb" d="M100 178 C117 229 110 260 158 278" stroke="#8a5b45" stroke-width="12"/>
    <path d="M43 172 H111 L105 252 H52 Z" fill="#8a86c9"/>
    <g fill="#e1dcff">
      <circle cx="59" cy="192" r="3"/>
      <circle cx="92" cy="183" r="3"/>
      <circle cx="80" cy="219" r="3"/>
      <circle cx="104" cy="235" r="3"/>
    </g>
    <circle cx="77" cy="72" r="41" fill="#9a604a"/>
    <path d="M37 77 C39 38 70 18 100 30 C121 39 132 64 127 94 C102 76 72 71 37 77 Z" fill="#3d2c31"/>
    <path d="M39 83 C37 124 49 146 72 154 C48 158 25 137 25 107 C25 96 30 88 39 83 Z" fill="#3d2c31"/>
    <path d="M108 64 C139 90 142 126 123 153" fill="none" stroke="#3d2c31" stroke-width="19" stroke-linecap="round"/>
    <path class="smile" d="M65 80 Q77 91 91 80"/>
    <path d="M39 112 C58 132 97 132 117 112 L125 175 C100 191 55 191 31 174 Z" fill="#d8929e"/>
    <path class="limb" d="M38 125 C18 146 14 173 16 202" stroke="#9a604a" stroke-width="11"/>
    <path class="limb" d="M114 126 C148 111 166 89 180 56" stroke="#9a604a" stroke-width="11"/>
    <path class="limb" d="M176 58 l10 -19 M180 56 l18 -8" stroke="#9a604a" stroke-width="5"/>
    <g transform="translate(3 126)" filter="url(#tinyShadow)">
      <rect x="0" y="0" width="69" height="45" rx="17" fill="#fff" stroke="#565b78" stroke-width="5"/>
      <circle cx="35" cy="23" r="14" fill="#5ec9b0"/>
      <circle cx="35" cy="23" r="6" fill="#fff"/>
    </g>
  </g>

  <g transform="translate(794 276)">
    <ellipse cx="71" cy="333" rx="54" ry="11" fill="#ead8d2"/>
    <path class="limb" d="M48 183 C32 227 23 267 20 317" stroke="#e19a73" stroke-width="12"/>
    <path class="limb" d="M93 183 C112 230 116 268 117 317" stroke="#e19a73" stroke-width="12"/>
    <path d="M35 175 H104 L99 249 H43 Z" fill="#e99a89"/>
    <g fill="#f8c6b8">
      <circle cx="54" cy="194" r="3"/>
      <circle cx="83" cy="184" r="3"/>
      <circle cx="69" cy="222" r="3"/>
      <circle cx="94" cy="238" r="3"/>
    </g>
    <circle cx="70" cy="73" r="41" fill="#efb47b"/>
    <path d="M33 60 C47 26 82 21 108 44 C95 57 59 61 33 60 Z" fill="#f2c36e"/>
    <path d="M77 22 C102 26 119 46 121 69" fill="none" stroke="#f2c36e" stroke-width="14" stroke-linecap="round"/>
    <path class="smile" d="M57 80 Q70 91 84 80"/>
    <path d="M33 116 C53 136 91 136 110 116 L118 178 C93 194 49 194 25 177 Z" fill="#9bc5dc"/>
    <g fill="#79a9c2">
      <circle cx="48" cy="134" r="4"/>
      <circle cx="78" cy="126" r="4"/>
      <circle cx="99" cy="152" r="4"/>
      <circle cx="59" cy="166" r="4"/>
    </g>
    <path class="limb" d="M32 127 C4 113 -4 87 1 62" stroke="#efb47b" stroke-width="11"/>
    <path class="limb" d="M108 126 C136 108 151 76 160 44" stroke="#efb47b" stroke-width="11"/>
    <path class="limb" d="M154 46 l10 -17 M160 44 l17 -8" stroke="#efb47b" stroke-width="5"/>
    <g transform="translate(124 26) rotate(14)" filter="url(#tinyShadow)">
      <path d="M10 20 C24 2 67 1 91 18 C109 31 103 64 79 76 C52 89 12 78 5 54 C1 41 3 29 10 20 Z" fill="#d99aa7"/>
      <g fill="#efc5cc">
        <circle cx="24" cy="30" r="3"/>
        <circle cx="48" cy="21" r="3"/>
        <circle cx="75" cy="37" r="3"/>
        <circle cx="58" cy="60" r="3"/>
      </g>
    </g>
  </g>

  <g transform="translate(990 287)">
    <ellipse cx="76" cy="321" rx="52" ry="11" fill="#e8d8d5"/>
    <path class="limb" d="M48 180 C32 224 26 267 23 304" stroke="#d68f73" stroke-width="11"/>
    <path class="limb" d="M96 180 C120 219 128 260 135 304" stroke="#d68f73" stroke-width="11"/>
    <path d="M37 172 H107 L98 248 H45 Z" fill="#9bb8d2"/>
    <g fill="#c9d9ea">
      <circle cx="55" cy="191" r="3"/>
      <circle cx="84" cy="182" r="3"/>
      <circle cx="68" cy="219" r="3"/>
      <circle cx="95" cy="236" r="3"/>
    </g>
    <circle cx="72" cy="72" r="40" fill="#d68f73"/>
    <path d="M38 62 C47 29 83 21 108 45 C94 60 60 62 38 62 Z" fill="#3d2d30"/>
    <path d="M102 49 C141 80 142 130 116 156" fill="none" stroke="#3d2d30" stroke-width="20" stroke-linecap="round"/>
    <path class="smile" d="M59 80 Q72 91 86 80"/>
    <path d="M34 115 C55 134 93 134 113 115 L119 177 C96 192 49 192 27 176 Z" fill="#fff9ef"/>
    <g transform="translate(54 134)">
      <ellipse cx="26" cy="17" rx="25" ry="16" fill="#ffe3a0"/>
      <path d="M4 17 C17 8 35 8 49 17" fill="none" stroke="#f4bf56" stroke-width="5" stroke-linecap="round"/>
      <circle cx="26" cy="17" r="6" fill="#fff9ef"/>
    </g>
    <path class="limb" d="M35 127 C9 111 0 81 5 55" stroke="#d68f73" stroke-width="11"/>
    <path class="limb" d="M112 126 C145 109 160 76 169 43" stroke="#d68f73" stroke-width="11"/>
    <path class="limb" d="M164 45 l10 -18 M169 43 l17 -8" stroke="#d68f73" stroke-width="5"/>
  </g>

  <g fill="none" stroke-linecap="round" opacity="0.42">
    <path d="M117 214 C239 186 333 206 429 159" stroke="#8aa7ff" stroke-width="7" stroke-dasharray="2 18"/>
    <path d="M735 159 C841 206 958 201 1065 163" stroke="#5ec9b0" stroke-width="7" stroke-dasharray="2 18"/>
  </g>
  <circle cx="109" cy="202" r="10" fill="#5ec9b0"/>
  <circle cx="378" cy="202" r="11" fill="#ffcf63"/>
  <circle cx="1036" cy="207" r="11" fill="#8aa7ff"/>
  <circle cx="1123" cy="434" r="10" fill="#ff7b72"/>
  <path d="M111 263 h25 M124 251 v25" stroke="#ff9f68" stroke-width="8" stroke-linecap="round"/>
  <path d="M1045 268 h26 M1058 255 v26" stroke="#8aa7ff" stroke-width="8" stroke-linecap="round"/>
</svg>
