<svg xmlns="http://www.w3.org/2000/svg" width="800" height="600" viewBox="0 0 800 600" role="img" aria-labelledby="title desc">
  <title id="title">Cute smart gas safety illustration</title>
  <desc id="desc">A cute flat illustration of smart gas safety with a detector, gas pipe, automatic valve, cooktop, cloud alert, and mobile app.</desc>
  <defs>
    <linearGradient id="bg" x1="0" x2="1" y1="0" y2="1">
      <stop offset="0" stop-color="#eef4ff"/>
      <stop offset="0.55" stop-color="#eafaff"/>
      <stop offset="1" stop-color="#edf8f4"/>
    </linearGradient>
    <filter id="shadow" x="-20%" y="-20%" width="140%" height="140%">
      <feDropShadow dx="0" dy="14" stdDeviation="14" flood-color="#33546b" flood-opacity="0.14"/>
    </filter>
  </defs>
  <rect width="800" height="600" rx="34" fill="url(#bg)"/>
  <path d="M0 415 C121 377 242 439 374 405 C504 372 624 416 800 377 L800 600 L0 600 Z" fill="#d8f3ec"/>
  <path d="M70 426 C197 377 282 439 414 404 C542 370 639 404 746 381" fill="none" stroke="#fff" stroke-width="6"/>

  <g transform="translate(78 328)" filter="url(#shadow)">
    <rect x="0" y="86" width="308" height="90" rx="28" fill="#fff" stroke="#46526f" stroke-width="8"/>
    <rect x="48" y="28" width="213" height="76" rx="20" fill="#c9edf7" stroke="#46526f" stroke-width="7"/>
    <circle cx="104" cy="66" r="18" fill="#5ec9b0"/>
    <circle cx="156" cy="66" r="18" fill="#ffcf63"/>
    <circle cx="208" cy="66" r="18" fill="#8aa7ff"/>
    <path d="M54 131 H254" stroke="#46526f" stroke-width="8" stroke-linecap="round"/>
    <path d="M104 128 C93 102 121 91 136 112 C151 91 179 102 166 128 Z" fill="#58c8ff"/>
    <path d="M137 106 C153 121 160 136 160 151 C160 170 149 181 136 181 C122 181 112 170 112 152 C112 137 123 121 137 106 Z" fill="#ffcf63"/>
    <path d="M138 129 C146 138 150 147 150 156 C150 167 144 173 137 173 C130 173 124 167 124 157 C124 148 130 138 138 129 Z" fill="#ff7b72"/>
  </g>

  <g transform="translate(486 75)" filter="url(#shadow)">
    <rect x="54" y="0" width="156" height="210" rx="48" fill="#fff" stroke="#46526f" stroke-width="8"/>
    <path d="M98 48 H166" stroke="#46526f" stroke-width="8" stroke-linecap="round"/>
    <path d="M95 168 H169" stroke="#b8c5de" stroke-width="7" stroke-linecap="round" stroke-dasharray="5 12"/>
    <circle cx="132" cy="111" r="35" fill="#5ec9b0"/>
    <circle cx="132" cy="111" r="14" fill="#fff"/>
    <text x="132" y="154" text-anchor="middle" font-family="Arial, sans-serif" font-weight="700" font-size="19" fill="#46526f">GAS</text>
    <path d="M132 210 V296" stroke="#46526f" stroke-width="9" stroke-linecap="round"/>
    <path d="M0 296 H289" stroke="#46526f" stroke-width="13" stroke-linecap="round"/>
    <circle cx="132" cy="296" r="48" fill="#ffcf63" stroke="#46526f" stroke-width="8"/>
    <path d="M97 296 H167 M132 261 V331" stroke="#46526f" stroke-width="9" stroke-linecap="round"/>
    <path d="M289 296 C329 297 349 323 344 360" fill="none" stroke="#46526f" stroke-width="13" stroke-linecap="round"/>
    <circle cx="344" cy="363" r="18" fill="#ff7b72" stroke="#46526f" stroke-width="7"/>
  </g>

  <g transform="translate(350 104)" filter="url(#shadow)">
    <rect x="0" y="34" width="90" height="158" rx="24" fill="#fff" stroke="#46526f" stroke-width="7"/>
    <rect x="18" y="55" width="54" height="88" rx="12" fill="#eef4ff" stroke="#b8c5de" stroke-width="5"/>
    <circle cx="45" cy="166" r="9" fill="#5ec9b0"/>
    <path d="M29 82 H61 M29 104 H61 M29 126 H52" stroke="#8aa7ff" stroke-width="5" stroke-linecap="round"/>
    <path d="M33 15 C41 3 55 3 63 15" fill="none" stroke="#5ec9b0" stroke-width="6" stroke-linecap="round"/>
  </g>

  <g transform="translate(114 113)" filter="url(#shadow)">
    <path d="M0 56 C0 33 19 14 42 14 H74 C85 -6 125 -2 132 25 H146 C173 25 194 47 194 74 C194 101 173 122 146 122 H38 C17 122 0 105 0 84 C0 73 5 63 13 56 Z" fill="#fff" stroke="#46526f" stroke-width="7"/>
    <path d="M60 70 h75" stroke="#8aa7ff" stroke-width="7" stroke-linecap="round"/>
    <path d="M95 44 v52" stroke="#ff7b72" stroke-width="9" stroke-linecap="round"/>
    <circle cx="95" cy="105" r="8" fill="#ff7b72"/>
  </g>

  <g transform="translate(260 205)" fill="none" stroke-linecap="round">
    <path d="M66 12 C19 53 26 103 81 132" stroke="#8aa7ff" stroke-width="8" stroke-dasharray="3 20" opacity="0.75"/>
    <path d="M107 60 C61 62 25 91 17 138" stroke="#ff9f68" stroke-width="8" stroke-dasharray="3 19" opacity="0.72"/>
    <path d="M300 22 C356 52 373 101 348 153" stroke="#5ec9b0" stroke-width="8" stroke-dasharray="3 19" opacity="0.72"/>
  </g>

  <g transform="translate(162 191)" filter="url(#shadow)">
    <path d="M40 77 C8 43 18 16 60 0 C55 46 110 55 95 105 C84 142 38 144 20 119 C7 101 16 84 40 77 Z" fill="#ffcf63" stroke="#46526f" stroke-width="7" stroke-linejoin="round"/>
    <path d="M63 76 C50 57 61 38 78 28 C75 56 108 67 88 94 C77 109 62 102 63 76 Z" fill="#ff7b72"/>
  </g>

  <circle cx="102" cy="144" r="9" fill="#5ec9b0"/>
  <circle cx="704" cy="108" r="10" fill="#8aa7ff"/>
  <circle cx="722" cy="430" r="8" fill="#ff7b72"/>
  <circle cx="438" cy="234" r="6" fill="#8aa7ff"/>
  <path d="M690 226 h24 M702 214 v24" stroke="#ff9f68" stroke-width="7" stroke-linecap="round"/>
</svg>
