<svg xmlns="http://www.w3.org/2000/svg" width="500" height="350" viewBox="0 0 500 350" role="img" aria-labelledby="title desc">
  <title id="title">Cute smart smoke sensor illustration</title>
  <desc id="desc">A cute flat round smoke sensor with vents, alert light, and smoke curls.</desc>
  <defs>
    <linearGradient id="bg" x1="0" x2="1" y1="0" y2="1">
      <stop offset="0" stop-color="#fff7df"/>
      <stop offset="0.52" stop-color="#edf9ff"/>
      <stop offset="1" stop-color="#f4efff"/>
    </linearGradient>
    <filter id="shadow" x="-20%" y="-20%" width="140%" height="140%">
      <feDropShadow dx="0" dy="10" stdDeviation="11" flood-color="#344c64" flood-opacity="0.15"/>
    </filter>
  </defs>
  <rect width="500" height="350" rx="24" fill="url(#bg)"/>
  <path d="M0 253 C77 222 137 265 236 242 C329 220 407 248 500 219 L500 350 L0 350 Z" fill="#ccefe8"/>
  <g transform="translate(92 39)" filter="url(#shadow)">
    <ellipse cx="158" cy="55" rx="151" ry="46" fill="#dbe8ff" opacity="0.55"/>
    <rect x="35" y="39" width="246" height="82" rx="41" fill="#fff" stroke="#46526f" stroke-width="7"/>
    <ellipse cx="158" cy="119" rx="101" ry="32" fill="#f7fbff" stroke="#46526f" stroke-width="7"/>
    <path d="M76 102 C116 123 200 123 240 102" fill="none" stroke="#46526f" stroke-width="7" stroke-linecap="round"/>
    <path d="M76 64 H240" stroke="#b8c5de" stroke-width="6" stroke-linecap="round" stroke-dasharray="5 12"/>
    <g stroke="#46526f" stroke-width="4" stroke-linecap="round" opacity="0.86">
      <path d="M105 115 v10"/>
      <path d="M126 120 v11"/>
      <path d="M148 122 v12"/>
      <path d="M170 122 v12"/>
      <path d="M192 120 v11"/>
      <path d="M212 115 v10"/>
    </g>
    <circle cx="158" cy="119" r="21" fill="#ff7b72"/>
    <circle cx="158" cy="119" r="9" fill="#fff"/>
  </g>
  <g transform="translate(153 177)" fill="none" stroke-linecap="round">
    <path d="M45 5 C6 47 75 67 36 110 C18 130 31 160 60 173" stroke="#d4dbea" stroke-width="10"/>
    <path d="M113 9 C78 48 137 70 103 113 C84 137 100 162 130 172" stroke="#ffb99b" stroke-width="8"/>
    <path d="M178 16 C142 55 203 76 163 121 C146 140 158 162 183 172" stroke="#b8eee0" stroke-width="8"/>
  </g>
  <path d="M126 154 C79 183 68 222 86 259" fill="none" stroke="#8aa7ff" stroke-width="6" stroke-linecap="round" stroke-dasharray="2 15" opacity="0.7"/>
  <path d="M374 154 C422 184 433 223 414 260" fill="none" stroke="#5ec9b0" stroke-width="6" stroke-linecap="round" stroke-dasharray="2 15" opacity="0.7"/>
  <circle cx="78" cy="88" r="7" fill="#8aa7ff"/>
  <circle cx="415" cy="100" r="8" fill="#ffcf63"/>
  <path d="M87 185 h18 M96 176 v18" stroke="#ff9f68" stroke-width="6" stroke-linecap="round"/>
  <path d="M386 211 h18 M395 202 v18" stroke="#ff7b72" stroke-width="6" stroke-linecap="round"/>
</svg>
