<svg xmlns="http://www.w3.org/2000/svg" width="800" height="600" viewBox="0 0 800 600" role="img" aria-labelledby="title desc">
  <title id="title">Cute smart gas detector illustration</title>
  <desc id="desc">A cute flat illustration of a wall gas detector, gas pipe, shutoff valve, and kitchen cooktop.</desc>
  <defs>
    <linearGradient id="bg" x1="0" x2="1" y1="0" y2="1">
      <stop offset="0" stop-color="#e9fbff"/>
      <stop offset="0.48" stop-color="#fff4da"/>
      <stop offset="1" stop-color="#eff7ec"/>
    </linearGradient>
    <filter id="shadow" x="-20%" y="-20%" width="140%" height="140%">
      <feDropShadow dx="0" dy="14" stdDeviation="14" flood-color="#33546b" flood-opacity="0.14"/>
    </filter>
  </defs>
  <rect width="800" height="600" rx="34" fill="url(#bg)"/>
  <path d="M0 409 C120 373 244 436 374 403 C505 369 625 413 800 373 L800 600 L0 600 Z" fill="#d3efd6"/>
  <path d="M70 421 C197 373 282 437 414 401 C542 367 639 401 746 378" fill="none" stroke="#fff" stroke-width="6"/>

  <g transform="translate(92 332)" filter="url(#shadow)">
    <rect x="0" y="82" width="300" height="90" rx="28" fill="#fff" stroke="#46526f" stroke-width="8"/>
    <rect x="45" y="28" width="210" height="73" rx="20" fill="#c9edf7" stroke="#46526f" stroke-width="7"/>
    <circle cx="98" cy="64" r="18" fill="#5ec9b0"/>
    <circle cx="151" cy="64" r="18" fill="#ffcf63"/>
    <circle cx="204" cy="64" r="18" fill="#8aa7ff"/>
    <path d="M48 127 H252" stroke="#46526f" stroke-width="8" stroke-linecap="round"/>
    <path d="M101 127 C91 101 118 89 132 111 C147 89 174 101 162 127 Z" fill="#58c8ff"/>
    <path d="M136 105 C151 118 157 132 157 145 C157 162 147 172 135 172 C122 172 112 162 112 146 C112 132 122 117 136 105 Z" fill="#ffcf63"/>
    <path d="M137 126 C145 135 148 143 148 151 C148 160 143 166 137 166 C130 166 125 160 125 152 C125 143 130 134 137 126 Z" fill="#ff7b72"/>
  </g>

  <g transform="translate(483 86)" filter="url(#shadow)">
    <rect x="70" y="0" width="155" height="218" rx="50" fill="#fff" stroke="#46526f" stroke-width="8"/>
    <path d="M116 53 H179" stroke="#46526f" stroke-width="8" stroke-linecap="round"/>
    <path d="M112 177 H183" stroke="#b8c5de" stroke-width="7" stroke-linecap="round" stroke-dasharray="5 12"/>
    <circle cx="148" cy="121" r="34" fill="#5ec9b0"/>
    <circle cx="148" cy="121" r="14" fill="#fff"/>
    <path d="M148 218 V313" stroke="#46526f" stroke-width="8" stroke-linecap="round"/>
    <path d="M26 313 H270" stroke="#46526f" stroke-width="13" stroke-linecap="round"/>
    <circle cx="148" cy="313" r="47" fill="#ffcf63" stroke="#46526f" stroke-width="8"/>
    <path d="M114 313 H182 M148 279 V347" stroke="#46526f" stroke-width="9" stroke-linecap="round"/>
    <path d="M270 313 C318 313 332 357 303 386" fill="none" stroke="#46526f" stroke-width="13" stroke-linecap="round"/>
    <circle cx="306" cy="388" r="17" fill="#ff7b72" stroke="#46526f" stroke-width="7"/>
  </g>

  <g transform="translate(400 199)" fill="none" stroke-linecap="round">
    <path d="M66 12 C19 53 26 103 81 132" stroke="#8aa7ff" stroke-width="8" stroke-dasharray="3 20" opacity="0.75"/>
    <path d="M107 60 C61 62 25 91 17 138" stroke="#ff9f68" stroke-width="8" stroke-dasharray="3 19" opacity="0.72"/>
    <path d="M190 45 C244 70 260 116 236 165" stroke="#5ec9b0" stroke-width="8" stroke-dasharray="3 19" opacity="0.72"/>
  </g>

  <g transform="translate(164 112)" filter="url(#shadow)">
    <path d="M40 77 C8 43 18 16 60 0 C55 46 110 55 95 105 C84 142 38 144 20 119 C7 101 16 84 40 77 Z" fill="#ffcf63" stroke="#46526f" stroke-width="7" stroke-linejoin="round"/>
    <path d="M63 76 C50 57 61 38 78 28 C75 56 108 67 88 94 C77 109 62 102 63 76 Z" fill="#ff7b72"/>
  </g>

  <circle cx="114" cy="141" r="9" fill="#5ec9b0"/>
  <circle cx="700" cy="109" r="10" fill="#8aa7ff"/>
  <circle cx="721" cy="432" r="8" fill="#ff7b72"/>
  <path d="M688 226 h24 M700 214 v24" stroke="#ff9f68" stroke-width="7" stroke-linecap="round"/>
</svg>
